<svg width="333" height="213" viewBox="0 0 333 213" fill="none" xmlns="http://www.w3.org/2000/svg">
<rect x="0.5" y="0.5" width="332" height="212" stroke="#ABB2BF"/>
<path d="M13.832 23.424L16.808 13.984H18.208L14.52 25H13.08L9.392 13.984H10.888L13.832 23.424ZM27.0338 13.984V21.432C27.0338 22.1733 26.8818 22.8267 26.5778 23.392C26.2791 23.9573 25.8551 24.3973 25.3058 24.712C24.7618 25.0267 24.1191 25.184 23.3778 25.184C22.6204 25.184 21.9698 25.0267 21.4258 24.712C20.8871 24.392 20.4738 23.9493 20.1858 23.384C19.8978 22.8187 19.7538 22.168 19.7538 21.432V13.984H21.1298V21.48C21.1298 22.3173 21.3244 22.944 21.7138 23.36C22.1084 23.776 22.6631 23.984 23.3778 23.984C24.0978 23.984 24.6524 23.776 25.0418 23.36C25.4364 22.944 25.6338 22.3173 25.6338 21.48V13.984H27.0338ZM31.5875 15.12V18.832H35.6675V19.976H31.5875V23.888H36.5955V25H30.1955V13.984H36.4515L36.2915 15.12H31.5875Z" fill="#ABB2BF"/>
<path d="M51.728 13.808C52.448 13.808 53.0507 13.8987 53.536 14.08C54.0213 14.2613 54.4827 14.528 54.92 14.88L54.144 15.784C53.7973 15.4907 53.4293 15.2827 53.04 15.16C52.656 15.032 52.2533 14.968 51.832 14.968C51.2293 14.968 50.672 15.112 50.16 15.4C49.648 15.6827 49.2347 16.1547 48.92 16.816C48.6107 17.472 48.456 18.3627 48.456 19.488C48.456 20.5813 48.6027 21.4587 48.896 22.12C49.1947 22.7813 49.5973 23.2587 50.104 23.552C50.6107 23.8453 51.176 23.992 51.8 23.992C52.4187 23.992 52.9253 23.8987 53.32 23.712C53.72 23.5253 54.0667 23.312 54.36 23.072L55.08 23.984C54.744 24.3093 54.3067 24.592 53.768 24.832C53.2293 25.0667 52.568 25.184 51.784 25.184C50.8933 25.184 50.0853 24.9653 49.36 24.528C48.64 24.0907 48.0693 23.4507 47.648 22.608C47.2267 21.76 47.016 20.72 47.016 19.488C47.016 18.2507 47.2293 17.2107 47.656 16.368C48.088 15.5253 48.6613 14.888 49.376 14.456C50.096 14.024 50.88 13.808 51.728 13.808ZM64.1778 21.952C64.1778 22.5813 64.0204 23.1413 63.7058 23.632C63.3911 24.1173 62.9351 24.4987 62.3378 24.776C61.7404 25.048 61.0124 25.184 60.1538 25.184C59.3484 25.184 58.6178 25.0613 57.9618 24.816C57.3111 24.5707 56.7538 24.224 56.2898 23.776L57.1138 22.848C57.4978 23.2053 57.9378 23.4907 58.4338 23.704C58.9298 23.912 59.5111 24.016 60.1778 24.016C60.6258 24.016 61.0444 23.944 61.4338 23.8C61.8231 23.6507 62.1378 23.4267 62.3778 23.128C62.6178 22.824 62.7378 22.44 62.7378 21.976C62.7378 21.6187 62.6684 21.3147 62.5298 21.064C62.3911 20.8133 62.1458 20.592 61.7938 20.4C61.4418 20.2027 60.9511 20.0107 60.3218 19.824C59.5964 19.6107 58.9671 19.3707 58.4338 19.104C57.9058 18.832 57.4951 18.4987 57.2018 18.104C56.9138 17.7093 56.7697 17.2213 56.7697 16.64C56.7697 16.0907 56.9218 15.6027 57.2258 15.176C57.5298 14.7493 57.9484 14.416 58.4818 14.176C59.0204 13.9307 59.6391 13.808 60.3378 13.808C61.1004 13.808 61.7618 13.9173 62.3218 14.136C62.8871 14.3493 63.3991 14.6587 63.8577 15.064L63.0418 15.968C62.6471 15.616 62.2231 15.3627 61.7698 15.208C61.3164 15.048 60.8551 14.968 60.3858 14.968C59.9858 14.968 59.6178 15.0293 59.2818 15.152C58.9511 15.2693 58.6844 15.448 58.4818 15.688C58.2844 15.9227 58.1858 16.224 58.1858 16.592C58.1858 16.9067 58.2711 17.1787 58.4418 17.408C58.6124 17.6373 58.9004 17.848 59.3058 18.04C59.7111 18.2267 60.2631 18.424 60.9618 18.632C61.5324 18.7973 62.0604 19.0053 62.5458 19.256C63.0364 19.5013 63.4311 19.8373 63.7298 20.264C64.0284 20.6853 64.1778 21.248 64.1778 21.952ZM73.7715 21.952C73.7715 22.5813 73.6142 23.1413 73.2995 23.632C72.9848 24.1173 72.5288 24.4987 71.9315 24.776C71.3342 25.048 70.6062 25.184 69.7475 25.184C68.9422 25.184 68.2115 25.0613 67.5555 24.816C66.9048 24.5707 66.3475 24.224 65.8835 23.776L66.7075 22.848C67.0915 23.2053 67.5315 23.4907 68.0275 23.704C68.5235 23.912 69.1048 24.016 69.7715 24.016C70.2195 24.016 70.6382 23.944 71.0275 23.8C71.4168 23.6507 71.7315 23.4267 71.9715 23.128C72.2115 22.824 72.3315 22.44 72.3315 21.976C72.3315 21.6187 72.2622 21.3147 72.1235 21.064C71.9848 20.8133 71.7395 20.592 71.3875 20.4C71.0355 20.2027 70.5448 20.0107 69.9155 19.824C69.1902 19.6107 68.5608 19.3707 68.0275 19.104C67.4995 18.832 67.0888 18.4987 66.7955 18.104C66.5075 17.7093 66.3635 17.2213 66.3635 16.64C66.3635 16.0907 66.5155 15.6027 66.8195 15.176C67.1235 14.7493 67.5422 14.416 68.0755 14.176C68.6142 13.9307 69.2328 13.808 69.9315 13.808C70.6942 13.808 71.3555 13.9173 71.9155 14.136C72.4808 14.3493 72.9928 14.6587 73.4515 15.064L72.6355 15.968C72.2408 15.616 71.8168 15.3627 71.3635 15.208C70.9102 15.048 70.4488 14.968 69.9795 14.968C69.5795 14.968 69.2115 15.0293 68.8755 15.152C68.5448 15.2693 68.2782 15.448 68.0755 15.688C67.8782 15.9227 67.7795 16.224 67.7795 16.592C67.7795 16.9067 67.8648 17.1787 68.0355 17.408C68.2062 17.6373 68.4942 17.848 68.8995 18.04C69.3048 18.2267 69.8568 18.424 70.5555 18.632C71.1262 18.7973 71.6542 19.0053 72.1395 19.256C72.6302 19.5013 73.0248 19.8373 73.3235 20.264C73.6222 20.6853 73.7715 21.248 73.7715 21.952Z" fill="#ABB2BF"/>
<path d="M90.944 13.984V21.344C90.944 21.8027 90.8827 22.2613 90.76 22.72C90.6427 23.1733 90.44 23.5867 90.152 23.96C89.8693 24.328 89.4853 24.624 89 24.848C88.5147 25.072 87.9093 25.184 87.184 25.184C86.6453 25.184 86.1147 25.0987 85.592 24.928C85.0747 24.7573 84.5973 24.5093 84.16 24.184L84.776 23.264C85.256 23.5627 85.6933 23.7653 86.088 23.872C86.4827 23.9733 86.8427 24.024 87.168 24.024C87.936 24.024 88.5253 23.7787 88.936 23.288C89.352 22.7973 89.56 22.1227 89.56 21.264V15.12H86.296V13.984H90.944ZM101.178 21.952C101.178 22.5813 101.02 23.1413 100.706 23.632C100.391 24.1173 99.9351 24.4987 99.3378 24.776C98.7404 25.048 98.0124 25.184 97.1538 25.184C96.3484 25.184 95.6178 25.0613 94.9618 24.816C94.3111 24.5707 93.7538 24.224 93.2898 23.776L94.1138 22.848C94.4978 23.2053 94.9378 23.4907 95.4338 23.704C95.9298 23.912 96.5111 24.016 97.1778 24.016C97.6258 24.016 98.0444 23.944 98.4338 23.8C98.8231 23.6507 99.1378 23.4267 99.3778 23.128C99.6178 22.824 99.7378 22.44 99.7378 21.976C99.7378 21.6187 99.6684 21.3147 99.5298 21.064C99.3911 20.8133 99.1458 20.592 98.7938 20.4C98.4418 20.2027 97.9511 20.0107 97.3218 19.824C96.5964 19.6107 95.9671 19.3707 95.4338 19.104C94.9058 18.832 94.4951 18.4987 94.2018 18.104C93.9138 17.7093 93.7697 17.2213 93.7697 16.64C93.7697 16.0907 93.9218 15.6027 94.2258 15.176C94.5298 14.7493 94.9484 14.416 95.4818 14.176C96.0204 13.9307 96.6391 13.808 97.3378 13.808C98.1004 13.808 98.7618 13.9173 99.3218 14.136C99.8871 14.3493 100.399 14.6587 100.858 15.064L100.042 15.968C99.6471 15.616 99.2231 15.3627 98.7698 15.208C98.3164 15.048 97.8551 14.968 97.3858 14.968C96.9858 14.968 96.6178 15.0293 96.2818 15.152C95.9511 15.2693 95.6844 15.448 95.4818 15.688C95.2844 15.9227 95.1858 16.224 95.1858 16.592C95.1858 16.9067 95.2711 17.1787 95.4418 17.408C95.6124 17.6373 95.9004 17.848 96.3058 18.04C96.7111 18.2267 97.2631 18.424 97.9618 18.632C98.5324 18.7973 99.0604 19.0053 99.5458 19.256C100.036 19.5013 100.431 19.8373 100.73 20.264C101.028 20.6853 101.178 21.248 101.178 21.952Z" fill="#ABB2BF"/>
<path d="M1 39H332V37H1V39Z" fill="#ABB2BF" mask="url(#path-5-inside-1_44_655)"/>
<path d="M29.852 61.44L30.788 78H28.244L27.848 69.936C27.824 69.328 27.804 68.74 27.788 68.172C27.78 67.604 27.776 67.06 27.776 66.54C27.776 66.02 27.78 65.54 27.788 65.1C27.804 64.652 27.82 64.248 27.836 63.888L25.4 75.084H22.976L20.36 63.888C20.384 64.232 20.404 64.636 20.42 65.1C20.436 65.556 20.448 66.048 20.456 66.576C20.464 67.104 20.464 67.656 20.456 68.232C20.456 68.808 20.448 69.384 20.432 69.96L20.108 78H17.612L18.548 61.44H21.884L24.248 72.54L26.504 61.44H29.852ZM44.6146 65.328L40.2466 78.048C39.9186 79.008 39.4986 79.852 38.9866 80.58C38.4746 81.316 37.8186 81.908 37.0186 82.356C36.2186 82.804 35.2266 83.08 34.0426 83.184L33.6946 81.168C34.5506 81.032 35.2306 80.832 35.7346 80.568C36.2466 80.312 36.6506 79.972 36.9466 79.548C37.2506 79.124 37.5186 78.608 37.7506 78H36.8386L32.5666 65.328H35.4226L38.6146 76.128L41.8546 65.328H44.6146ZM64.9959 66.84C65.4359 66.264 65.9479 65.812 66.5319 65.484C67.1239 65.156 67.7719 64.992 68.4759 64.992C69.5879 64.992 70.4879 65.268 71.1759 65.82C71.8719 66.364 72.3799 67.136 72.6999 68.136C73.0279 69.128 73.1919 70.296 73.1919 71.64C73.1919 72.928 72.9999 74.076 72.6159 75.084C72.2319 76.092 71.6639 76.884 70.9119 77.46C70.1679 78.036 69.2479 78.324 68.1519 78.324C66.7359 78.324 65.6239 77.8 64.8159 76.752L64.6719 78H62.3079V60.24L64.9959 59.94V66.84ZM67.4799 76.272C68.3919 76.272 69.0959 75.9 69.5919 75.156C70.0959 74.412 70.3479 73.244 70.3479 71.652C70.3479 70.572 70.2479 69.696 70.0479 69.024C69.8479 68.344 69.5519 67.848 69.1599 67.536C68.7759 67.224 68.3039 67.068 67.7439 67.068C67.1439 67.068 66.6159 67.248 66.1599 67.608C65.7039 67.968 65.3159 68.392 64.9959 68.88V74.808C65.2919 75.264 65.6479 75.624 66.0639 75.888C66.4879 76.144 66.9599 76.272 67.4799 76.272ZM82.2665 60.24V74.544C82.2665 75.128 82.4425 75.544 82.7945 75.792C83.1545 76.032 83.6185 76.152 84.1865 76.152C84.5545 76.152 84.9025 76.112 85.2305 76.032C85.5585 75.952 85.8785 75.852 86.1905 75.732L86.8745 77.604C86.4985 77.796 86.0345 77.964 85.4825 78.108C84.9385 78.252 84.3145 78.324 83.6105 78.324C82.3385 78.324 81.3465 77.968 80.6345 77.256C79.9305 76.536 79.5785 75.552 79.5785 74.304V62.22H75.7505V60.24H82.2665ZM96.1651 64.992C97.4051 64.992 98.4491 65.268 99.2971 65.82C100.145 66.372 100.785 67.144 101.217 68.136C101.657 69.128 101.877 70.296 101.877 71.64C101.877 72.976 101.653 74.148 101.205 75.156C100.765 76.156 100.117 76.936 99.2611 77.496C98.4131 78.048 97.3771 78.324 96.1531 78.324C94.9291 78.324 93.8891 78.056 93.0331 77.52C92.1851 76.976 91.5371 76.204 91.0891 75.204C90.6491 74.204 90.4291 73.024 90.4291 71.664C90.4291 70.344 90.6491 69.184 91.0891 68.184C91.5371 67.184 92.1891 66.404 93.0451 65.844C93.9011 65.276 94.9411 64.992 96.1651 64.992ZM96.1651 67.08C95.1971 67.08 94.4691 67.452 93.9811 68.196C93.4931 68.932 93.2491 70.088 93.2491 71.664C93.2491 73.232 93.4891 74.388 93.9691 75.132C94.4571 75.876 95.1851 76.248 96.1531 76.248C97.1211 76.248 97.8451 75.876 98.3251 75.132C98.8131 74.388 99.0571 73.224 99.0571 71.64C99.0571 70.08 98.8171 68.932 98.3371 68.196C97.8571 67.452 97.1331 67.08 96.1651 67.08ZM116.148 63.72L116.868 65.952C116.364 66.12 115.808 66.232 115.2 66.288C114.6 66.344 113.928 66.372 113.184 66.372C113.944 66.708 114.516 67.14 114.9 67.668C115.284 68.188 115.476 68.828 115.476 69.588C115.476 70.412 115.276 71.148 114.876 71.796C114.476 72.444 113.904 72.952 113.16 73.32C112.416 73.688 111.524 73.872 110.484 73.872C110.116 73.872 109.796 73.856 109.524 73.824C109.26 73.792 109 73.74 108.744 73.668C108.584 73.78 108.448 73.932 108.336 74.124C108.232 74.308 108.18 74.504 108.18 74.712C108.18 74.968 108.284 75.192 108.492 75.384C108.708 75.568 109.132 75.66 109.764 75.66H111.972C112.876 75.66 113.672 75.816 114.36 76.128C115.056 76.432 115.6 76.852 115.992 77.388C116.392 77.916 116.592 78.516 116.592 79.188C116.592 80.452 116.048 81.432 114.96 82.128C113.872 82.824 112.304 83.172 110.256 83.172C108.808 83.172 107.672 83.024 106.848 82.728C106.024 82.432 105.444 81.992 105.108 81.408C104.772 80.824 104.604 80.108 104.604 79.26H107.016C107.016 79.7 107.1 80.064 107.268 80.352C107.444 80.64 107.768 80.856 108.24 81C108.712 81.144 109.392 81.216 110.28 81.216C111.168 81.216 111.872 81.14 112.392 80.988C112.92 80.844 113.3 80.632 113.532 80.352C113.772 80.08 113.892 79.752 113.892 79.368C113.892 78.856 113.668 78.46 113.22 78.18C112.772 77.9 112.172 77.76 111.42 77.76H109.248C108.048 77.76 107.168 77.516 106.608 77.028C106.056 76.54 105.78 75.972 105.78 75.324C105.78 74.892 105.9 74.476 106.14 74.076C106.388 73.676 106.74 73.328 107.196 73.032C106.436 72.632 105.88 72.148 105.528 71.58C105.184 71.004 105.012 70.308 105.012 69.492C105.012 68.596 105.236 67.812 105.684 67.14C106.132 66.468 106.752 65.944 107.544 65.568C108.344 65.192 109.264 65.004 110.304 65.004C111.32 65.004 112.168 64.952 112.848 64.848C113.528 64.736 114.12 64.58 114.624 64.38C115.136 64.18 115.644 63.96 116.148 63.72ZM110.328 66.852C109.472 66.852 108.828 67.096 108.396 67.584C107.964 68.064 107.748 68.692 107.748 69.468C107.748 70.268 107.968 70.912 108.408 71.4C108.856 71.88 109.508 72.12 110.364 72.12C111.156 72.12 111.76 71.888 112.176 71.424C112.6 70.96 112.812 70.3 112.812 69.444C112.812 68.58 112.604 67.932 112.188 67.5C111.772 67.068 111.152 66.852 110.328 66.852Z" fill="white"/>
<path d="M20.592 107.12V110.976H24.912V112.096H20.592V117H19.216V105.984H25.704L25.536 107.12H20.592ZM28.2818 117V115.968H29.5938V109.608H28.2818V108.576H30.6178L30.8658 110.568C31.1911 109.875 31.5858 109.339 32.0498 108.96C32.5138 108.581 33.1271 108.392 33.8898 108.392C34.1244 108.392 34.3324 108.411 34.5138 108.448C34.7004 108.48 34.8898 108.523 35.0818 108.576L34.6898 109.776C34.5138 109.728 34.3538 109.693 34.2098 109.672C34.0658 109.645 33.9004 109.632 33.7138 109.632C33.0684 109.632 32.5138 109.861 32.0498 110.32C31.5858 110.779 31.2151 111.472 30.9378 112.4V115.968H32.6498V117H28.2818ZM33.7858 111.424V109.592L33.9218 108.576H35.0818L34.8898 111.424H33.7858ZM41.0035 108.4C41.7982 108.4 42.4622 108.581 42.9955 108.944C43.5342 109.301 43.9368 109.808 44.2035 110.464C44.4755 111.12 44.6115 111.893 44.6115 112.784C44.6115 113.643 44.4728 114.403 44.1955 115.064C43.9182 115.725 43.5102 116.245 42.9715 116.624C42.4382 116.997 41.7768 117.184 40.9875 117.184C40.1982 117.184 39.5342 117.003 38.9955 116.64C38.4568 116.277 38.0488 115.768 37.7715 115.112C37.4995 114.451 37.3635 113.68 37.3635 112.8C37.3635 111.931 37.5022 111.165 37.7795 110.504C38.0568 109.843 38.4648 109.328 39.0035 108.96C39.5475 108.587 40.2142 108.4 41.0035 108.4ZM41.0035 109.496C40.2782 109.496 39.7288 109.765 39.3555 110.304C38.9875 110.837 38.8035 111.669 38.8035 112.8C38.8035 113.909 38.9848 114.733 39.3475 115.272C39.7155 115.811 40.2622 116.08 40.9875 116.08C41.7128 116.08 42.2568 115.811 42.6195 115.272C42.9875 114.733 43.1715 113.904 43.1715 112.784C43.1715 111.664 42.9902 110.837 42.6275 110.304C42.2648 109.765 41.7235 109.496 41.0035 109.496ZM47.3893 117V108.576H48.5333L48.6373 109.744C48.9786 109.312 49.4053 108.981 49.9173 108.752C50.4346 108.517 50.9359 108.4 51.4213 108.4C52.2479 108.4 52.8479 108.619 53.2213 109.056C53.5999 109.493 53.7893 110.101 53.7893 110.88V117H52.4453V111.872C52.4453 111.296 52.4133 110.832 52.3493 110.48C52.2853 110.123 52.1519 109.864 51.9493 109.704C51.7466 109.539 51.4319 109.456 51.0053 109.456C50.6746 109.456 50.3626 109.528 50.0693 109.672C49.7813 109.816 49.5226 109.997 49.2933 110.216C49.0693 110.429 48.8826 110.645 48.7333 110.864V117H47.3893ZM63.671 116.576C63.383 116.768 63.0337 116.917 62.623 117.024C62.2123 117.131 61.8097 117.184 61.415 117.184C60.5083 117.184 59.8097 116.947 59.319 116.472C58.8283 115.997 58.583 115.387 58.583 114.64V109.616H56.647V108.576H58.583V106.664L59.927 106.504V108.576H62.839L62.679 109.616H59.927V114.624C59.927 115.093 60.0497 115.451 60.295 115.696C60.5457 115.941 60.959 116.064 61.535 116.064C61.8497 116.064 62.1403 116.027 62.407 115.952C62.6737 115.877 62.9217 115.781 63.151 115.664L63.671 116.576ZM66.5608 113.216V112.048H72.9768V113.216H66.5608ZM77.2265 113.264C77.2532 113.915 77.3785 114.448 77.6025 114.864C77.8265 115.275 78.1225 115.579 78.4905 115.776C78.8585 115.968 79.2585 116.064 79.6905 116.064C80.1225 116.064 80.5118 116 80.8585 115.872C81.2105 115.744 81.5705 115.555 81.9385 115.304L82.5705 116.192C82.1758 116.501 81.7252 116.744 81.2185 116.92C80.7172 117.096 80.2025 117.184 79.6745 117.184C78.8585 117.184 78.1625 117 77.5865 116.632C77.0105 116.264 76.5705 115.752 76.2665 115.096C75.9678 114.435 75.8185 113.669 75.8185 112.8C75.8185 111.947 75.9705 111.189 76.2745 110.528C76.5785 109.867 77.0052 109.347 77.5545 108.968C78.1038 108.589 78.7518 108.4 79.4985 108.4C80.2078 108.4 80.8185 108.568 81.3305 108.904C81.8425 109.235 82.2345 109.709 82.5065 110.328C82.7838 110.941 82.9225 111.675 82.9225 112.528C82.9225 112.672 82.9198 112.808 82.9145 112.936C82.9092 113.059 82.9012 113.168 82.8905 113.264H77.2265ZM79.5145 109.504C78.8905 109.504 78.3678 109.725 77.9465 110.168C77.5305 110.611 77.2932 111.296 77.2345 112.224H81.6265C81.6105 111.323 81.4132 110.645 81.0345 110.192C80.6558 109.733 80.1492 109.504 79.5145 109.504ZM85.7643 117V108.576H86.9083L87.0123 109.744C87.3536 109.312 87.7803 108.981 88.2923 108.752C88.8096 108.517 89.3109 108.4 89.7963 108.4C90.6229 108.4 91.2229 108.619 91.5963 109.056C91.9749 109.493 92.1643 110.101 92.1643 110.88V117H90.8203V111.872C90.8203 111.296 90.7883 110.832 90.7243 110.48C90.6603 110.123 90.5269 109.864 90.3243 109.704C90.1216 109.539 89.8069 109.456 89.3803 109.456C89.0496 109.456 88.7376 109.528 88.4443 109.672C88.1563 109.816 87.8976 109.997 87.6683 110.216C87.4443 110.429 87.2576 110.645 87.1083 110.864V117H85.7643ZM100.398 105.016L101.742 105.184V117H100.566L100.438 115.888C100.123 116.336 99.7607 116.664 99.35 116.872C98.9447 117.08 98.51 117.184 98.046 117.184C97.3153 117.184 96.7127 117 96.238 116.632C95.7633 116.264 95.4113 115.752 95.182 115.096C94.9527 114.435 94.838 113.669 94.838 112.8C94.838 111.957 94.9687 111.205 95.23 110.544C95.4913 109.877 95.8673 109.355 96.358 108.976C96.854 108.592 97.4487 108.4 98.142 108.4C98.6273 108.4 99.054 108.485 99.422 108.656C99.79 108.821 100.115 109.067 100.398 109.392V105.016ZM98.494 109.48C97.79 109.48 97.2487 109.755 96.87 110.304C96.4913 110.853 96.302 111.685 96.302 112.8C96.302 113.525 96.3793 114.133 96.534 114.624C96.6887 115.115 96.9153 115.483 97.214 115.728C97.518 115.973 97.8887 116.096 98.326 116.096C98.806 116.096 99.214 115.96 99.55 115.688C99.8913 115.416 100.174 115.109 100.398 114.768V110.56C100.169 110.219 99.8913 109.955 99.566 109.768C99.2407 109.576 98.8833 109.48 98.494 109.48ZM117.754 108.4C118.548 108.4 119.212 108.581 119.746 108.944C120.284 109.301 120.687 109.808 120.954 110.464C121.226 111.12 121.362 111.893 121.362 112.784C121.362 113.643 121.223 114.403 120.946 115.064C120.668 115.725 120.26 116.245 119.722 116.624C119.188 116.997 118.527 117.184 117.738 117.184C116.948 117.184 116.284 117.003 115.746 116.64C115.207 116.277 114.799 115.768 114.522 115.112C114.25 114.451 114.113 113.68 114.113 112.8C114.113 111.931 114.252 111.165 114.53 110.504C114.807 109.843 115.215 109.328 115.754 108.96C116.298 108.587 116.964 108.4 117.754 108.4ZM117.754 109.496C117.028 109.496 116.479 109.765 116.106 110.304C115.738 110.837 115.554 111.669 115.554 112.8C115.554 113.909 115.735 114.733 116.098 115.272C116.466 115.811 117.012 116.08 117.738 116.08C118.463 116.08 119.007 115.811 119.37 115.272C119.738 114.733 119.922 113.904 119.922 112.784C119.922 111.664 119.74 110.837 119.378 110.304C119.015 109.765 118.474 109.496 117.754 109.496ZM129.115 105.016C129.569 105.016 129.979 105.056 130.347 105.136C130.715 105.216 131.065 105.328 131.395 105.472L130.963 106.472C130.691 106.355 130.403 106.267 130.099 106.208C129.795 106.149 129.481 106.12 129.155 106.12C128.569 106.12 128.126 106.235 127.827 106.464C127.534 106.693 127.387 107.045 127.387 107.52V109.232H130.243L130.099 110.288H127.387V117H126.043V110.288H124.035V109.232H126.043V107.552C126.043 107.029 126.177 106.579 126.443 106.2C126.715 105.821 127.083 105.531 127.547 105.328C128.011 105.12 128.534 105.016 129.115 105.016ZM148.879 108.4C149.151 108.4 149.409 108.459 149.655 108.576C149.905 108.693 150.111 108.92 150.271 109.256C150.431 109.592 150.511 110.083 150.511 110.728V117H149.263V110.944C149.263 110.416 149.231 110.035 149.167 109.8C149.103 109.565 148.919 109.448 148.615 109.448C148.364 109.448 148.113 109.528 147.863 109.688C147.617 109.843 147.377 110.099 147.143 110.456V117H145.887V110.944C145.887 110.416 145.855 110.035 145.791 109.8C145.727 109.565 145.543 109.448 145.239 109.448C144.977 109.448 144.724 109.528 144.479 109.688C144.239 109.843 144.001 110.099 143.767 110.456V117H142.527V108.576H143.583L143.663 109.552C143.892 109.227 144.148 108.955 144.431 108.736C144.719 108.512 145.073 108.4 145.495 108.4C145.815 108.4 146.116 108.477 146.399 108.632C146.681 108.781 146.889 109.075 147.023 109.512C147.252 109.181 147.511 108.915 147.799 108.712C148.087 108.504 148.447 108.4 148.879 108.4ZM159.929 108.576L156.969 117.056C156.771 117.627 156.521 118.149 156.217 118.624C155.918 119.099 155.526 119.491 155.041 119.8C154.561 120.115 153.95 120.309 153.209 120.384L153.001 119.312C153.582 119.216 154.041 119.069 154.377 118.872C154.713 118.675 154.977 118.421 155.169 118.112C155.366 117.803 155.539 117.432 155.689 117H155.241L152.297 108.576H153.737L156.153 115.976L158.537 108.576H159.929ZM177.084 105.016C177.537 105.016 177.948 105.056 178.316 105.136C178.684 105.216 179.033 105.328 179.364 105.472L178.932 106.472C178.66 106.355 178.372 106.267 178.068 106.208C177.764 106.149 177.449 106.12 177.124 106.12C176.537 106.12 176.095 106.235 175.796 106.464C175.503 106.693 175.356 107.045 175.356 107.52V109.232H178.212L178.068 110.288H175.356V117H174.012V110.288H172.004V109.232H174.012V107.552C174.012 107.029 174.145 106.579 174.412 106.2C174.684 105.821 175.052 105.531 175.516 105.328C175.98 105.12 176.503 105.016 177.084 105.016ZM183.046 108.576V114.544C183.046 115.099 183.16 115.499 183.39 115.744C183.619 115.989 183.976 116.112 184.462 116.112C184.926 116.112 185.363 115.981 185.774 115.72C186.19 115.453 186.512 115.139 186.742 114.776V108.576H188.086V117H186.942L186.83 115.864C186.499 116.291 186.091 116.619 185.606 116.848C185.12 117.072 184.63 117.184 184.134 117.184C183.318 117.184 182.707 116.968 182.302 116.536C181.902 116.099 181.702 115.488 181.702 114.704V108.576H183.046ZM197.984 116.576C197.696 116.768 197.346 116.917 196.936 117.024C196.525 117.131 196.122 117.184 195.728 117.184C194.821 117.184 194.122 116.947 193.632 116.472C193.141 115.997 192.896 115.387 192.896 114.64V109.616H190.96V108.576H192.896V106.664L194.24 106.504V108.576H197.152L196.992 109.616H194.24V114.624C194.24 115.093 194.362 115.451 194.608 115.696C194.858 115.941 195.272 116.064 195.848 116.064C196.162 116.064 196.453 116.027 196.72 115.952C196.986 115.877 197.234 115.781 197.464 115.664L197.984 116.576ZM202.233 108.576V114.544C202.233 115.099 202.348 115.499 202.577 115.744C202.807 115.989 203.164 116.112 203.649 116.112C204.113 116.112 204.551 115.981 204.961 115.72C205.377 115.453 205.7 115.139 205.929 114.776V108.576H207.273V117H206.129L206.017 115.864C205.687 116.291 205.279 116.619 204.793 116.848C204.308 117.072 203.817 117.184 203.321 117.184C202.505 117.184 201.895 116.968 201.489 116.536C201.089 116.099 200.889 115.488 200.889 114.704V108.576H202.233ZM210.563 117V115.968H211.875V109.608H210.563V108.576H212.899L213.147 110.568C213.472 109.875 213.867 109.339 214.331 108.96C214.795 108.581 215.408 108.392 216.171 108.392C216.406 108.392 216.614 108.411 216.795 108.448C216.982 108.48 217.171 108.523 217.363 108.576L216.971 109.776C216.795 109.728 216.635 109.693 216.491 109.672C216.347 109.645 216.182 109.632 215.995 109.632C215.35 109.632 214.795 109.861 214.331 110.32C213.867 110.779 213.496 111.472 213.219 112.4V115.968H214.931V117H210.563ZM216.067 111.424V109.592L216.203 108.576H217.363L217.171 111.424H216.067ZM221.133 113.264C221.159 113.915 221.285 114.448 221.509 114.864C221.733 115.275 222.029 115.579 222.397 115.776C222.765 115.968 223.165 116.064 223.597 116.064C224.029 116.064 224.418 116 224.765 115.872C225.117 115.744 225.477 115.555 225.845 115.304L226.477 116.192C226.082 116.501 225.631 116.744 225.125 116.92C224.623 117.096 224.109 117.184 223.581 117.184C222.765 117.184 222.069 117 221.493 116.632C220.917 116.264 220.477 115.752 220.173 115.096C219.874 114.435 219.725 113.669 219.725 112.8C219.725 111.947 219.877 111.189 220.181 110.528C220.485 109.867 220.911 109.347 221.461 108.968C222.01 108.589 222.658 108.4 223.405 108.4C224.114 108.4 224.725 108.568 225.237 108.904C225.749 109.235 226.141 109.709 226.413 110.328C226.69 110.941 226.829 111.675 226.829 112.528C226.829 112.672 226.826 112.808 226.821 112.936C226.815 113.059 226.807 113.168 226.797 113.264H221.133ZM223.421 109.504C222.797 109.504 222.274 109.725 221.853 110.168C221.437 110.611 221.199 111.296 221.141 112.224H225.533C225.517 111.323 225.319 110.645 224.941 110.192C224.562 109.733 224.055 109.504 223.421 109.504ZM240.608 109.672C240.918 109.267 241.272 108.955 241.672 108.736C242.078 108.512 242.523 108.4 243.008 108.4C243.76 108.4 244.368 108.581 244.832 108.944C245.296 109.307 245.635 109.819 245.848 110.48C246.062 111.136 246.168 111.904 246.168 112.784C246.168 113.632 246.04 114.389 245.784 115.056C245.528 115.717 245.152 116.237 244.656 116.616C244.166 116.995 243.558 117.184 242.832 117.184C241.856 117.184 241.091 116.832 240.536 116.128L240.44 117H239.264V105.184L240.608 105.016V109.672ZM242.512 116.096C243.216 116.096 243.758 115.824 244.136 115.28C244.515 114.736 244.704 113.901 244.704 112.776C244.704 112.04 244.63 111.429 244.48 110.944C244.331 110.453 244.107 110.088 243.808 109.848C243.515 109.603 243.152 109.48 242.72 109.48C242.251 109.48 241.838 109.621 241.48 109.904C241.128 110.181 240.838 110.491 240.608 110.832V115.008C240.827 115.339 241.102 115.603 241.432 115.8C241.768 115.997 242.128 116.096 242.512 116.096ZM252.138 105.184V114.92C252.138 115.336 252.266 115.632 252.522 115.808C252.783 115.979 253.119 116.064 253.53 116.064C253.786 116.064 254.029 116.037 254.258 115.984C254.487 115.931 254.717 115.859 254.946 115.768L255.306 116.752C255.077 116.864 254.791 116.963 254.45 117.048C254.114 117.139 253.733 117.184 253.306 117.184C252.559 117.184 251.954 116.979 251.49 116.568C251.026 116.152 250.794 115.579 250.794 114.848V106.248H248.21V105.184H252.138ZM261.66 108.4C262.454 108.4 263.118 108.581 263.652 108.944C264.19 109.301 264.593 109.808 264.86 110.464C265.132 111.12 265.268 111.893 265.268 112.784C265.268 113.643 265.129 114.403 264.852 115.064C264.574 115.725 264.166 116.245 263.628 116.624C263.094 116.997 262.433 117.184 261.644 117.184C260.854 117.184 260.19 117.003 259.652 116.64C259.113 116.277 258.705 115.768 258.428 115.112C258.156 114.451 258.02 113.68 258.02 112.8C258.02 111.931 258.158 111.165 258.436 110.504C258.713 109.843 259.121 109.328 259.66 108.96C260.204 108.587 260.87 108.4 261.66 108.4ZM261.66 109.496C260.934 109.496 260.385 109.765 260.012 110.304C259.644 110.837 259.46 111.669 259.46 112.8C259.46 113.909 259.641 114.733 260.004 115.272C260.372 115.811 260.918 116.08 261.644 116.08C262.369 116.08 262.913 115.811 263.276 115.272C263.644 114.733 263.828 113.904 263.828 112.784C263.828 111.664 263.646 110.837 263.284 110.304C262.921 109.765 262.38 109.496 261.66 109.496ZM274.894 107.68L275.31 108.944C274.952 109.056 274.571 109.125 274.166 109.152C273.76 109.179 273.32 109.192 272.846 109.192C273.331 109.416 273.696 109.707 273.942 110.064C274.187 110.416 274.31 110.832 274.31 111.312C274.31 111.867 274.184 112.36 273.934 112.792C273.683 113.224 273.32 113.563 272.846 113.808C272.376 114.053 271.808 114.176 271.141 114.176C270.859 114.176 270.622 114.163 270.43 114.136C270.243 114.109 270.062 114.069 269.886 114.016C269.758 114.101 269.651 114.219 269.566 114.368C269.486 114.517 269.446 114.672 269.446 114.832C269.446 115.035 269.526 115.203 269.686 115.336C269.846 115.469 270.142 115.536 270.574 115.536H272.094C272.659 115.536 273.166 115.637 273.614 115.84C274.067 116.043 274.422 116.315 274.678 116.656C274.939 116.997 275.069 117.387 275.069 117.824C275.069 118.651 274.718 119.285 274.014 119.728C273.315 120.171 272.326 120.392 271.046 120.392C270.15 120.392 269.443 120.299 268.926 120.112C268.408 119.931 268.038 119.651 267.814 119.272C267.595 118.899 267.486 118.427 267.486 117.856H268.702C268.702 118.181 268.766 118.451 268.894 118.664C269.022 118.877 269.254 119.035 269.59 119.136C269.926 119.243 270.408 119.296 271.038 119.296C271.656 119.296 272.16 119.243 272.55 119.136C272.944 119.035 273.235 118.88 273.422 118.672C273.614 118.469 273.71 118.216 273.71 117.912C273.71 117.512 273.528 117.211 273.166 117.008C272.803 116.805 272.35 116.704 271.806 116.704H270.302C269.576 116.704 269.04 116.544 268.694 116.224C268.352 115.904 268.182 115.536 268.182 115.12C268.182 114.848 268.259 114.584 268.414 114.328C268.574 114.072 268.806 113.845 269.11 113.648C268.624 113.392 268.267 113.075 268.038 112.696C267.808 112.317 267.694 111.859 267.694 111.32C267.694 110.749 267.835 110.245 268.118 109.808C268.4 109.365 268.795 109.019 269.302 108.768C269.808 108.517 270.392 108.392 271.054 108.392C271.763 108.387 272.339 108.357 272.782 108.304C273.224 108.245 273.603 108.163 273.918 108.056C274.238 107.949 274.563 107.824 274.894 107.68ZM271.054 109.376C270.376 109.376 269.875 109.56 269.55 109.928C269.23 110.291 269.07 110.755 269.07 111.32C269.07 111.891 269.235 112.36 269.566 112.728C269.896 113.096 270.403 113.28 271.086 113.28C271.683 113.28 272.136 113.107 272.446 112.76C272.76 112.413 272.918 111.931 272.918 111.312C272.918 110.677 272.76 110.197 272.446 109.872C272.136 109.541 271.672 109.376 271.054 109.376ZM24.848 138H22.944L21.856 131.816L20.672 138H18.816L17.28 129.576H18.656L19.728 137.168L21.072 130.648H22.664L23.936 137.168L25.008 129.576H26.32L24.848 138ZM29.2578 134.264C29.2844 134.915 29.4098 135.448 29.6338 135.864C29.8578 136.275 30.1538 136.579 30.5218 136.776C30.8898 136.968 31.2898 137.064 31.7218 137.064C32.1538 137.064 32.5431 137 32.8898 136.872C33.2418 136.744 33.6018 136.555 33.9698 136.304L34.6018 137.192C34.2071 137.501 33.7564 137.744 33.2498 137.92C32.7484 138.096 32.2338 138.184 31.7058 138.184C30.8898 138.184 30.1938 138 29.6178 137.632C29.0418 137.264 28.6018 136.752 28.2978 136.096C27.9991 135.435 27.8498 134.669 27.8498 133.8C27.8498 132.947 28.0018 132.189 28.3058 131.528C28.6098 130.867 29.0364 130.347 29.5858 129.968C30.1351 129.589 30.7831 129.4 31.5298 129.4C32.2391 129.4 32.8498 129.568 33.3618 129.904C33.8738 130.235 34.2658 130.709 34.5378 131.328C34.8151 131.941 34.9538 132.675 34.9538 133.528C34.9538 133.672 34.9511 133.808 34.9458 133.936C34.9404 134.059 34.9324 134.168 34.9218 134.264H29.2578ZM31.5458 130.504C30.9218 130.504 30.3991 130.725 29.9778 131.168C29.5618 131.611 29.3244 132.296 29.2658 133.224H33.6578C33.6418 132.323 33.4444 131.645 33.0658 131.192C32.6871 130.733 32.1804 130.504 31.5458 130.504ZM39.1395 130.672C39.4488 130.267 39.8035 129.955 40.2035 129.736C40.6088 129.512 41.0542 129.4 41.5395 129.4C42.2915 129.4 42.8995 129.581 43.3635 129.944C43.8275 130.307 44.1662 130.819 44.3795 131.48C44.5928 132.136 44.6995 132.904 44.6995 133.784C44.6995 134.632 44.5715 135.389 44.3155 136.056C44.0595 136.717 43.6835 137.237 43.1875 137.616C42.6968 137.995 42.0888 138.184 41.3635 138.184C40.3875 138.184 39.6222 137.832 39.0675 137.128L38.9715 138H37.7955V126.184L39.1395 126.016V130.672ZM41.0435 137.096C41.7475 137.096 42.2888 136.824 42.6675 136.28C43.0462 135.736 43.2355 134.901 43.2355 133.776C43.2355 133.04 43.1608 132.429 43.0115 131.944C42.8622 131.453 42.6382 131.088 42.3395 130.848C42.0462 130.603 41.6835 130.48 41.2515 130.48C40.7822 130.48 40.3688 130.621 40.0115 130.904C39.6595 131.181 39.3688 131.491 39.1395 131.832V136.008C39.3582 136.339 39.6328 136.603 39.9635 136.8C40.2995 136.997 40.6595 137.096 41.0435 137.096ZM50.2533 137.072C50.8986 137.072 51.4079 136.952 51.7813 136.712C52.1599 136.467 52.3493 136.141 52.3493 135.736C52.3493 135.48 52.3013 135.259 52.2053 135.072C52.1146 134.885 51.9253 134.717 51.6373 134.568C51.3493 134.419 50.9066 134.269 50.3093 134.12C49.7279 133.976 49.2213 133.811 48.7893 133.624C48.3626 133.432 48.0293 133.184 47.7893 132.88C47.5546 132.576 47.4373 132.181 47.4373 131.696C47.4373 131.221 47.5706 130.813 47.8372 130.472C48.1093 130.125 48.4853 129.861 48.9653 129.68C49.4453 129.493 50.0026 129.4 50.6373 129.4C51.3146 129.4 51.9039 129.491 52.4053 129.672C52.9119 129.848 53.3413 130.067 53.6933 130.328L53.1013 131.24C52.7813 131.021 52.4293 130.843 52.0453 130.704C51.6613 130.56 51.1973 130.488 50.6533 130.488C49.9919 130.488 49.5226 130.592 49.2453 130.8C48.9679 131.003 48.8293 131.267 48.8293 131.592C48.8293 131.837 48.8959 132.043 49.0293 132.208C49.1679 132.368 49.3999 132.515 49.7253 132.648C50.0506 132.776 50.4986 132.917 51.0693 133.072C51.6186 133.216 52.0959 133.389 52.5013 133.592C52.9119 133.795 53.2319 134.061 53.4613 134.392C53.6906 134.723 53.8053 135.149 53.8053 135.672C53.8053 136.269 53.6346 136.755 53.2933 137.128C52.9519 137.496 52.5093 137.765 51.9653 137.936C51.4266 138.101 50.8559 138.184 50.2533 138.184C49.4906 138.184 48.8399 138.075 48.3013 137.856C47.7679 137.632 47.3199 137.363 46.9572 137.048L47.7253 136.16C48.0559 136.432 48.4346 136.653 48.8613 136.824C49.2933 136.989 49.7573 137.072 50.2533 137.072ZM61.247 129.576V136.936H63.623V138H57.303V136.936H59.903V130.64H57.383V129.576H61.247ZM60.175 125.632C60.4737 125.632 60.711 125.723 60.887 125.904C61.0683 126.085 61.159 126.307 61.159 126.568C61.159 126.84 61.0683 127.069 60.887 127.256C60.711 127.437 60.4737 127.528 60.175 127.528C59.8923 127.528 59.6603 127.437 59.479 127.256C59.2977 127.069 59.207 126.84 59.207 126.568C59.207 126.307 59.2977 126.085 59.479 125.904C59.6603 125.723 59.8923 125.632 60.175 125.632ZM73.2648 137.576C72.9768 137.768 72.6274 137.917 72.2168 138.024C71.8061 138.131 71.4034 138.184 71.0088 138.184C70.1021 138.184 69.4034 137.947 68.9128 137.472C68.4221 136.997 68.1768 136.387 68.1768 135.64V130.616H66.2408V129.576H68.1768V127.664L69.5208 127.504V129.576H72.4328L72.2728 130.616H69.5208V135.624C69.5208 136.093 69.6434 136.451 69.8888 136.696C70.1394 136.941 70.5528 137.064 71.1288 137.064C71.4434 137.064 71.7341 137.027 72.0008 136.952C72.2674 136.877 72.5154 136.781 72.7448 136.664L73.2648 137.576ZM77.2265 134.264C77.2532 134.915 77.3785 135.448 77.6025 135.864C77.8265 136.275 78.1225 136.579 78.4905 136.776C78.8585 136.968 79.2585 137.064 79.6905 137.064C80.1225 137.064 80.5118 137 80.8585 136.872C81.2105 136.744 81.5705 136.555 81.9385 136.304L82.5705 137.192C82.1758 137.501 81.7252 137.744 81.2185 137.92C80.7172 138.096 80.2025 138.184 79.6745 138.184C78.8585 138.184 78.1625 138 77.5865 137.632C77.0105 137.264 76.5705 136.752 76.2665 136.096C75.9678 135.435 75.8185 134.669 75.8185 133.8C75.8185 132.947 75.9705 132.189 76.2745 131.528C76.5785 130.867 77.0052 130.347 77.5545 129.968C78.1038 129.589 78.7518 129.4 79.4985 129.4C80.2078 129.4 80.8185 129.568 81.3305 129.904C81.8425 130.235 82.2345 130.709 82.5065 131.328C82.7838 131.941 82.9225 132.675 82.9225 133.528C82.9225 133.672 82.9198 133.808 82.9145 133.936C82.9092 134.059 82.9012 134.168 82.8905 134.264H77.2265ZM79.5145 130.504C78.8905 130.504 78.3678 130.725 77.9465 131.168C77.5305 131.611 77.2932 132.296 77.2345 133.224H81.6265C81.6105 132.323 81.4132 131.645 81.0345 131.192C80.6558 130.733 80.1492 130.504 79.5145 130.504ZM101.598 138H99.694L98.606 131.816L97.422 138H95.566L94.03 129.576H95.406L96.478 137.168L97.822 130.648H99.414L100.686 137.168L101.758 129.576H103.07L101.598 138ZM105.032 138V136.968H106.344V130.608H105.032V129.576H107.368L107.616 131.568C107.941 130.875 108.336 130.339 108.8 129.96C109.264 129.581 109.877 129.392 110.64 129.392C110.874 129.392 111.082 129.411 111.264 129.448C111.45 129.48 111.64 129.523 111.832 129.576L111.44 130.776C111.264 130.728 111.104 130.693 110.96 130.672C110.816 130.645 110.65 130.632 110.464 130.632C109.818 130.632 109.264 130.861 108.8 131.32C108.336 131.779 107.965 132.472 107.688 133.4V136.968H109.4V138H105.032ZM110.536 132.424V130.592L110.672 129.576H111.832L111.64 132.424H110.536ZM118.81 129.576V136.936H121.186V138H114.866V136.936H117.466V130.64H114.946V129.576H118.81ZM117.738 125.632C118.036 125.632 118.274 125.723 118.45 125.904C118.631 126.085 118.722 126.307 118.722 126.568C118.722 126.84 118.631 127.069 118.45 127.256C118.274 127.437 118.036 127.528 117.738 127.528C117.455 127.528 117.223 127.437 117.042 127.256C116.86 127.069 116.77 126.84 116.77 126.568C116.77 126.307 116.86 126.085 117.042 125.904C117.223 125.723 117.455 125.632 117.738 125.632ZM130.827 137.576C130.539 137.768 130.19 137.917 129.779 138.024C129.369 138.131 128.966 138.184 128.571 138.184C127.665 138.184 126.966 137.947 126.475 137.472C125.985 136.997 125.739 136.387 125.739 135.64V130.616H123.803V129.576H125.739V127.664L127.083 127.504V129.576H129.995L129.835 130.616H127.083V135.624C127.083 136.093 127.206 136.451 127.451 136.696C127.702 136.941 128.115 137.064 128.691 137.064C129.006 137.064 129.297 137.027 129.563 136.952C129.83 136.877 130.078 136.781 130.307 136.664L130.827 137.576ZM140.421 137.576C140.133 137.768 139.784 137.917 139.373 138.024C138.962 138.131 138.56 138.184 138.165 138.184C137.258 138.184 136.56 137.947 136.069 137.472C135.578 136.997 135.333 136.387 135.333 135.64V130.616H133.397V129.576H135.333V127.664L136.677 127.504V129.576H139.589L139.429 130.616H136.677V135.624C136.677 136.093 136.8 136.451 137.045 136.696C137.296 136.941 137.709 137.064 138.285 137.064C138.6 137.064 138.89 137.027 139.157 136.952C139.424 136.877 139.672 136.781 139.901 136.664L140.421 137.576ZM144.383 134.264C144.409 134.915 144.535 135.448 144.759 135.864C144.983 136.275 145.279 136.579 145.647 136.776C146.015 136.968 146.415 137.064 146.847 137.064C147.279 137.064 147.668 137 148.015 136.872C148.367 136.744 148.727 136.555 149.095 136.304L149.727 137.192C149.332 137.501 148.881 137.744 148.375 137.92C147.873 138.096 147.359 138.184 146.831 138.184C146.015 138.184 145.319 138 144.743 137.632C144.167 137.264 143.727 136.752 143.423 136.096C143.124 135.435 142.975 134.669 142.975 133.8C142.975 132.947 143.127 132.189 143.431 131.528C143.735 130.867 144.161 130.347 144.711 129.968C145.26 129.589 145.908 129.4 146.655 129.4C147.364 129.4 147.975 129.568 148.487 129.904C148.999 130.235 149.391 130.709 149.663 131.328C149.94 131.941 150.079 132.675 150.079 133.528C150.079 133.672 150.076 133.808 150.071 133.936C150.065 134.059 150.057 134.168 150.047 134.264H144.383ZM146.671 130.504C146.047 130.504 145.524 130.725 145.103 131.168C144.687 131.611 144.449 132.296 144.391 133.224H148.783C148.767 132.323 148.569 131.645 148.191 131.192C147.812 130.733 147.305 130.504 146.671 130.504ZM152.921 138V129.576H154.065L154.169 130.744C154.51 130.312 154.937 129.981 155.449 129.752C155.966 129.517 156.467 129.4 156.953 129.4C157.779 129.4 158.379 129.619 158.753 130.056C159.131 130.493 159.321 131.101 159.321 131.88V138H157.977V132.872C157.977 132.296 157.945 131.832 157.881 131.48C157.817 131.123 157.683 130.864 157.481 130.704C157.278 130.539 156.963 130.456 156.537 130.456C156.206 130.456 155.894 130.528 155.601 130.672C155.313 130.816 155.054 130.997 154.825 131.216C154.601 131.429 154.414 131.645 154.265 131.864V138H152.921ZM176.372 129.576V136.936H178.748V138H172.428V136.936H175.028V130.64H172.508V129.576H176.372ZM175.3 125.632C175.599 125.632 175.836 125.723 176.012 125.904C176.193 126.085 176.284 126.307 176.284 126.568C176.284 126.84 176.193 127.069 176.012 127.256C175.836 127.437 175.599 127.528 175.3 127.528C175.017 127.528 174.785 127.437 174.604 127.256C174.423 127.069 174.332 126.84 174.332 126.568C174.332 126.307 174.423 126.085 174.604 125.904C174.785 125.723 175.017 125.632 175.3 125.632ZM181.702 138V129.576H182.846L182.95 130.744C183.291 130.312 183.718 129.981 184.23 129.752C184.747 129.517 185.248 129.4 185.734 129.4C186.56 129.4 187.16 129.619 187.534 130.056C187.912 130.493 188.102 131.101 188.102 131.88V138H186.758V132.872C186.758 132.296 186.726 131.832 186.662 131.48C186.598 131.123 186.464 130.864 186.262 130.704C186.059 130.539 185.744 130.456 185.318 130.456C184.987 130.456 184.675 130.528 184.382 130.672C184.094 130.816 183.835 130.997 183.606 131.216C183.382 131.429 183.195 131.645 183.046 131.864V138H181.702ZM207.913 129.576L204.849 138H203.289L200.249 129.576H201.673L204.113 136.776L206.521 129.576H207.913ZM211.827 129.576V135.544C211.827 136.099 211.942 136.499 212.171 136.744C212.4 136.989 212.758 137.112 213.243 137.112C213.707 137.112 214.144 136.981 214.555 136.72C214.971 136.453 215.294 136.139 215.523 135.776V129.576H216.867V138H215.723L215.611 136.864C215.28 137.291 214.872 137.619 214.387 137.848C213.902 138.072 213.411 138.184 212.915 138.184C212.099 138.184 211.488 137.968 211.083 137.536C210.683 137.099 210.483 136.488 210.483 135.704V129.576H211.827ZM221.133 134.264C221.159 134.915 221.285 135.448 221.509 135.864C221.733 136.275 222.029 136.579 222.397 136.776C222.765 136.968 223.165 137.064 223.597 137.064C224.029 137.064 224.418 137 224.765 136.872C225.117 136.744 225.477 136.555 225.845 136.304L226.477 137.192C226.082 137.501 225.631 137.744 225.125 137.92C224.623 138.096 224.109 138.184 223.581 138.184C222.765 138.184 222.069 138 221.493 137.632C220.917 137.264 220.477 136.752 220.173 136.096C219.874 135.435 219.725 134.669 219.725 133.8C219.725 132.947 219.877 132.189 220.181 131.528C220.485 130.867 220.911 130.347 221.461 129.968C222.01 129.589 222.658 129.4 223.405 129.4C224.114 129.4 224.725 129.568 225.237 129.904C225.749 130.235 226.141 130.709 226.413 131.328C226.69 131.941 226.829 132.675 226.829 133.528C226.829 133.672 226.826 133.808 226.821 133.936C226.815 134.059 226.807 134.168 226.797 134.264H221.133ZM223.421 130.504C222.797 130.504 222.274 130.725 221.853 131.168C221.437 131.611 221.199 132.296 221.141 133.224H225.533C225.517 132.323 225.319 131.645 224.941 131.192C224.562 130.733 224.055 130.504 223.421 130.504Z" fill="#ABB2BF"/>
<rect x="17.5" y="159.5" width="127" height="36" stroke="#C778DD"/>
<path d="M38.088 183.216C37.1493 183.216 36.344 183.003 35.672 182.576C35 182.144 34.4853 181.501 34.128 180.648C33.7707 179.795 33.592 178.733 33.592 177.464C33.592 176.52 33.72 175.691 33.976 174.976C34.232 174.261 34.584 173.664 35.032 173.184C35.48 172.704 35.992 172.344 36.568 172.104C37.1493 171.859 37.7627 171.736 38.408 171.736C39.16 171.736 39.7867 171.848 40.288 172.072C40.7947 172.296 41.264 172.608 41.696 173.008L40.656 174.088C40.32 173.779 39.976 173.552 39.624 173.408C39.2773 173.259 38.888 173.184 38.456 173.184C38.0667 173.184 37.696 173.261 37.344 173.416C36.9973 173.565 36.688 173.808 36.416 174.144C36.144 174.475 35.928 174.915 35.768 175.464C35.6133 176.008 35.536 176.677 35.536 177.472C35.536 178.496 35.6347 179.325 35.832 179.96C36.0293 180.589 36.3227 181.048 36.712 181.336C37.1067 181.624 37.5947 181.768 38.176 181.768C38.512 181.768 38.832 181.728 39.136 181.648C39.44 181.568 39.728 181.453 40 181.304V178.264H38.128L37.928 176.848H41.8V182.2C41.2773 182.493 40.72 182.736 40.128 182.928C39.5413 183.12 38.8613 183.216 38.088 183.216ZM48.6338 174.552V181.688H50.9298V183H44.3138V181.688H46.8418V175.864H44.3938V174.552H48.6338ZM47.3858 170.416C47.7378 170.416 48.0204 170.523 48.2338 170.736C48.4524 170.949 48.5618 171.216 48.5618 171.536C48.5618 171.856 48.4524 172.125 48.2338 172.344C48.0204 172.563 47.7378 172.672 47.3858 172.672C47.0444 172.672 46.7644 172.563 46.5458 172.344C46.3271 172.125 46.2178 171.856 46.2178 171.536C46.2178 171.216 46.3271 170.949 46.5458 170.736C46.7644 170.523 47.0444 170.416 47.3858 170.416ZM60.6675 182.552C60.3582 182.749 59.9875 182.909 59.5555 183.032C59.1235 183.155 58.6728 183.216 58.2035 183.216C57.2222 183.216 56.4755 182.963 55.9635 182.456C55.4568 181.944 55.2035 181.272 55.2035 180.44V175.856H53.3235V174.552H55.2035V172.664L56.9955 172.448V174.552H59.8435L59.6435 175.856H56.9955V180.424C56.9955 180.877 57.1075 181.216 57.3315 181.44C57.5608 181.659 57.9342 181.768 58.4515 181.768C58.7608 181.768 59.0462 181.731 59.3075 181.656C59.5688 181.581 59.8062 181.485 60.0195 181.368L60.6675 182.552ZM64.9973 170.984V175.584C65.3386 175.168 65.7386 174.856 66.1973 174.648C66.6559 174.435 67.1279 174.328 67.6133 174.328C68.4079 174.328 68.9999 174.549 69.3893 174.992C69.7786 175.429 69.9733 176.045 69.9733 176.84V183H68.1813V177.12C68.1813 176.613 68.0853 176.251 67.8933 176.032C67.7013 175.808 67.3919 175.696 66.9653 175.696C66.6986 175.696 66.4426 175.757 66.1973 175.88C65.9573 175.997 65.7333 176.152 65.5253 176.344C65.3226 176.536 65.1466 176.741 64.9973 176.96V183H63.2053V171.176L64.9973 170.984ZM74.591 174.552V180.456C74.591 180.957 74.6897 181.315 74.887 181.528C75.0897 181.741 75.3937 181.848 75.799 181.848C76.183 181.848 76.5537 181.733 76.911 181.504C77.2683 181.275 77.551 180.995 77.759 180.664V174.552H79.551V183H78.007L77.895 181.92C77.5803 182.341 77.183 182.664 76.703 182.888C76.223 183.107 75.7323 183.216 75.231 183.216C74.415 183.216 73.8043 182.992 73.399 182.544C72.999 182.091 72.799 181.469 72.799 180.68V174.552H74.591ZM84.1848 175.56C84.4781 175.176 84.8194 174.875 85.2088 174.656C85.6034 174.437 86.0354 174.328 86.5048 174.328C87.2461 174.328 87.8461 174.512 88.3048 174.88C88.7688 175.243 89.1074 175.757 89.3208 176.424C89.5394 177.085 89.6488 177.864 89.6488 178.76C89.6488 179.619 89.5208 180.384 89.2648 181.056C89.0088 181.728 88.6301 182.256 88.1288 182.64C87.6328 183.024 87.0194 183.216 86.2888 183.216C85.3448 183.216 84.6034 182.867 84.0648 182.168L83.9688 183H82.3928V171.16L84.1848 170.96V175.56ZM85.8408 181.848C86.4488 181.848 86.9181 181.6 87.2488 181.104C87.5848 180.608 87.7528 179.829 87.7528 178.768C87.7528 178.048 87.6861 177.464 87.5528 177.016C87.4194 176.563 87.2221 176.232 86.9608 176.024C86.7048 175.816 86.3901 175.712 86.0168 175.712C85.6168 175.712 85.2648 175.832 84.9608 176.072C84.6568 176.312 84.3981 176.595 84.1848 176.92V180.872C84.3821 181.176 84.6194 181.416 84.8968 181.592C85.1794 181.763 85.4941 181.848 85.8408 181.848ZM109.232 173.384L110.056 174.68L104.584 177.984L110.056 181.288L109.176 182.576L103.04 178.752V177.216L109.232 173.384ZM119.872 173.384L126.056 177.208V178.752L119.92 182.576L119.04 181.312L124.52 177.984L119.04 174.704L119.872 173.384ZM120.704 176.696L121.84 177.24C121.658 177.619 121.445 177.976 121.2 178.312C120.96 178.648 120.672 178.923 120.336 179.136C120.005 179.349 119.602 179.456 119.128 179.456C118.749 179.456 118.421 179.376 118.144 179.216C117.861 179.056 117.608 178.869 117.384 178.656C117.154 178.443 116.933 178.256 116.72 178.096C116.501 177.936 116.266 177.856 116.016 177.856C115.77 177.856 115.546 177.936 115.344 178.096C115.136 178.256 114.925 178.443 114.712 178.656C114.498 178.869 114.258 179.056 113.992 179.216C113.72 179.376 113.394 179.456 113.016 179.456C112.637 179.456 112.309 179.376 112.032 179.216C111.749 179.056 111.496 178.869 111.272 178.656C111.042 178.443 110.821 178.256 110.608 178.096C110.389 177.936 110.154 177.856 109.904 177.856C109.573 177.856 109.29 177.981 109.056 178.232C108.816 178.477 108.592 178.792 108.384 179.176L107.248 178.64C107.434 178.272 107.648 177.92 107.888 177.584C108.122 177.243 108.408 176.963 108.744 176.744C109.08 176.52 109.485 176.408 109.96 176.408C110.36 176.408 110.701 176.488 110.984 176.648C111.266 176.808 111.52 176.995 111.744 177.208C111.968 177.421 112.184 177.608 112.392 177.768C112.6 177.928 112.826 178.008 113.072 178.008C113.312 178.008 113.53 177.928 113.728 177.768C113.925 177.608 114.13 177.421 114.344 177.208C114.552 176.995 114.792 176.808 115.064 176.648C115.336 176.488 115.672 176.408 116.072 176.408C116.472 176.408 116.813 176.488 117.096 176.648C117.378 176.808 117.632 176.995 117.856 177.208C118.08 177.421 118.296 177.608 118.504 177.768C118.712 177.928 118.938 178.008 119.184 178.008C119.504 178.008 119.784 177.888 120.024 177.648C120.269 177.403 120.496 177.085 120.704 176.696Z" fill="white"/>
</svg>
